<svg xmlns="http://www.w3.org/2000/svg" viewBox="0 0 24 24" fill="#000000">
  <path d="M22.2819 9.8211a5.9847 5.9847 0 0 0-.5157-4.9108 6.0462 6.0462 0 0 0-6.5095-2.9A6.0651 6.0651 0 0 0 4.9807 4.1818a5.9847 5.9847 0 0 0-3.9977 2.9 6.0462 6.0462 0 0 0-.7427 5.96 5.9847 5.9847 0 0 0 .5157 4.9108 6.0462 6.0462 0 0 0 6.5095 2.9 6.0651 6.0651 0 0 0 10.791 1.251 5.9847 5.9847 0 0 0 3.9977-2.9 6.0462 6.0462 0 0 0 .7427-5.96zM11.9999 19.5375a7.5612 7.5612 0 0 1-3.467-.8294A7.5372 7.5372 0 0 1 5.6786 16.85a7.5533 7.5533 0 0 1-1.333-2.5051 7.4862 7.4862 0 0 1-.6399-2.8481 7.5911 7.5911 0 0 1 .5215-2.8445 7.4948 7.4948 0 0 1 1.492-2.5083 7.6127 7.6127 0 0 1 2.3692-1.7645 7.569 7.569 0 0 1 5.3807-.368 7.5403 7.5403 0 0 1 2.9411 1.7812 7.564 7.564 0 0 1 1.9625 2.733 7.5347 7.5347 0 0 1 .6409 2.8491 7.4988 7.4988 0 0 1-.5205 2.8435 7.5628 7.5628 0 0 1-1.492 2.5073 7.5711 7.5711 0 0 1-2.3692 1.7655 7.5384 7.5384 0 0 1-2.9387.367 8.0154 8.0154 0 0 1-.6626.0476z"/>
  <path d="M12.0172 8.5311c-1.9215 0-3.48 1.5585-3.48 3.48s1.5585 3.48 3.48 3.48 3.48-1.5585 3.48-3.48-1.5585-3.48-3.48-3.48z"/>
</svg>
