<?xml version="1.0" standalone="no"?>
<!DOCTYPE svg PUBLIC "-//W3C//DTD SVG 20010904//EN"
 "http://www.w3.org/TR/2001/REC-SVG-20010904/DTD/svg10.dtd">
<svg version="1.0" xmlns="http://www.w3.org/2000/svg"
 width="1536.000000pt" height="2048.000000pt" viewBox="0 0 1536.000000 2048.000000"
 preserveAspectRatio="xMidYMid meet">

<g transform="translate(0.000000,2048.000000) scale(0.100000,-0.100000)"
fill="#000000" stroke="none">
<path d="M8195 19140 c-11 -5 -65 -9 -120 -10 -55 -1 -125 -6 -155 -11 -30 -5
-95 -14 -145 -18 -189 -19 -302 -37 -490 -82 -22 -6 -58 -14 -80 -18 -125 -27
-328 -92 -460 -148 -111 -47 -179 -87 -255 -148 -36 -28 -74 -57 -85 -63 -29
-15 -132 -123 -207 -217 -127 -158 -218 -303 -310 -495 -22 -47 -94 -195 -159
-328 -66 -134 -119 -245 -119 -247 0 -2 -15 -36 -34 -77 -18 -40 -55 -125 -80
-188 -26 -63 -51 -124 -56 -135 -4 -11 -27 -72 -50 -135 -24 -63 -48 -128 -55
-145 -17 -39 -172 -504 -192 -575 -16 -58 -23 -84 -47 -165 -25 -85 -95 -345
-106 -395 -9 -39 -75 -305 -90 -360 -5 -19 -16 -60 -24 -90 -9 -30 -34 -134
-56 -230 -22 -96 -45 -191 -50 -210 -8 -31 -52 -220 -81 -350 -6 -25 -16 -70
-24 -100 -16 -65 -24 -100 -65 -285 -17 -77 -35 -154 -40 -171 -6 -17 -10 -39
-10 -49 0 -10 -4 -32 -9 -49 -9 -28 -36 -150 -63 -281 -5 -27 -14 -66 -18 -85
-41 -171 -61 -263 -111 -505 -6 -27 -15 -66 -19 -85 -4 -19 -13 -60 -20 -90
-6 -30 -16 -75 -21 -100 -15 -67 -26 -118 -39 -185 -6 -33 -15 -73 -20 -90 -4
-16 -22 -97 -39 -180 -38 -180 -59 -278 -71 -325 -4 -19 -13 -57 -19 -85 -5
-27 -19 -95 -31 -150 -12 -55 -26 -122 -31 -150 -6 -27 -14 -66 -19 -85 -18
-76 -41 -182 -76 -345 -35 -161 -42 -196 -63 -297 -4 -24 -18 -88 -30 -143
-12 -55 -27 -122 -32 -150 -5 -27 -14 -68 -19 -90 -13 -55 -69 -320 -79 -375
-5 -25 -17 -76 -26 -115 -38 -160 -65 -305 -69 -375 -4 -50 -11 -98 -36 -230
-5 -25 -13 -68 -19 -96 -5 -28 -14 -69 -20 -90 -5 -21 -17 -82 -26 -134 -19
-109 -29 -159 -50 -248 -8 -35 -15 -73 -15 -85 0 -11 -4 -34 -10 -51 -5 -17
-23 -105 -40 -196 -17 -91 -35 -183 -40 -205 -5 -22 -12 -56 -15 -75 -3 -19
-12 -71 -20 -115 -8 -44 -21 -120 -29 -170 -9 -49 -22 -121 -31 -160 -9 -38
-20 -92 -26 -120 -5 -27 -14 -68 -19 -90 -4 -22 -13 -66 -18 -97 -6 -31 -18
-87 -27 -125 -9 -37 -20 -88 -25 -113 -5 -25 -21 -92 -34 -150 -14 -58 -43
-186 -66 -285 -23 -99 -46 -193 -50 -210 -5 -16 -20 -82 -35 -145 -14 -63 -30
-121 -34 -129 -7 -10 -32 -13 -102 -12 -51 1 -97 5 -103 9 -6 4 -56 10 -111
14 -55 4 -152 12 -215 18 -285 27 -382 32 -635 37 -162 3 -296 0 -335 -6 -36
-5 -110 -15 -165 -21 -55 -7 -118 -16 -140 -22 -22 -5 -58 -14 -80 -20 -174
-43 -461 -170 -575 -253 -88 -64 -221 -202 -259 -268 -116 -202 -182 -464
-184 -722 -1 -198 58 -379 168 -516 51 -63 216 -221 315 -301 139 -112 372
-220 645 -298 209 -60 362 -97 490 -120 28 -5 75 -14 105 -19 118 -23 330 -48
505 -59 66 -4 127 -11 135 -17 26 -16 385 -27 930 -27 515 -1 689 7 753 31 16
6 50 11 77 11 27 0 60 4 74 10 14 5 76 12 138 15 68 3 143 13 188 26 70 19 97
26 190 48 31 8 222 58 305 81 346 96 601 202 755 316 273 201 541 576 648 904
89 272 105 400 99 755 -4 244 -10 330 -38 550 -15 122 -22 454 -10 480 5 11
12 47 15 80 16 183 185 518 287 571 30 15 192 59 279 76 93 18 213 34 423 57
45 5 91 12 102 15 20 7 76 9 560 27 495 18 777 12 980 -19 69 -11 265 -61 280
-71 6 -4 33 -16 60 -26 68 -24 140 -62 200 -106 108 -78 262 -274 283 -362 5
-23 15 -64 22 -92 67 -270 68 -1510 1 -1795 -6 -25 -17 -80 -26 -123 -32 -161
-73 -209 -240 -280 -90 -38 -299 -97 -445 -126 -336 -67 -322 -64 -425 -94
-27 -8 -84 -27 -125 -42 -41 -14 -88 -32 -105 -37 -59 -21 -215 -106 -302
-164 -105 -70 -233 -195 -326 -319 -75 -99 -159 -262 -176 -340 -6 -27 -18
-78 -26 -113 -26 -110 -19 -222 27 -447 39 -193 167 -400 374 -609 130 -130
316 -240 594 -349 96 -38 419 -140 500 -158 19 -5 53 -12 75 -18 22 -5 81 -16
130 -25 50 -9 113 -21 140 -27 58 -12 480 -6 680 10 72 6 202 16 290 21 498
33 742 56 820 79 17 5 66 12 110 16 44 3 96 10 115 15 19 5 69 16 110 25 41 9
91 20 110 24 19 5 94 23 165 40 139 34 212 55 370 107 152 50 453 166 630 244
222 97 458 215 635 317 219 126 445 323 546 475 51 77 108 195 124 259 47 184
92 557 117 969 5 74 13 142 18 150 5 8 13 85 17 170 9 163 20 363 38 670 19
303 30 543 35 750 3 107 10 204 15 215 21 42 30 1432 11 1575 -7 52 -17 208
-22 345 -10 279 -24 645 -39 1020 -16 396 -30 760 -38 1025 -4 135 -11 252
-17 260 -5 8 -13 110 -18 225 -13 366 -36 712 -78 1190 -30 350 -48 517 -99
930 -5 39 -13 107 -19 152 -5 46 -12 87 -16 93 -4 6 -11 47 -16 93 -11 90 -22
161 -37 252 -6 33 -16 94 -23 135 -11 72 -19 115 -38 218 -5 26 -14 76 -21
111 -6 36 -13 67 -15 71 -2 3 -11 48 -21 100 -23 130 -30 165 -49 240 -9 36
-20 85 -25 110 -5 25 -23 99 -40 165 -18 66 -36 136 -40 155 -8 35 -21 85 -61
230 -11 41 -25 93 -31 115 -6 22 -16 58 -23 80 -7 22 -18 58 -24 80 -27 99
-74 262 -81 280 -4 11 -25 79 -45 150 -152 531 -415 1212 -569 1475 -8 14 -41
70 -72 125 -138 241 -362 550 -568 784 -103 116 -328 340 -416 413 -124 103
-366 241 -565 321 -238 96 -444 153 -645 177 -80 10 -134 23 -180 43 -43 19
-239 40 -510 55 -74 4 -141 11 -149 16 -7 5 -115 13 -240 18 -297 13 -1530 19
-1556 8z m1765 -2269 c63 -6 144 -13 180 -17 36 -3 69 -10 75 -15 5 -5 30 -9
55 -9 25 0 50 -4 55 -9 6 -5 28 -11 50 -14 41 -5 245 -54 280 -67 11 -5 47
-18 80 -30 33 -12 68 -26 77 -31 10 -5 23 -9 30 -9 17 0 241 -113 258 -130 3
-3 31 -25 63 -49 62 -47 139 -138 179 -211 35 -64 88 -201 88 -227 0 -12 4
-24 8 -27 5 -3 10 -30 11 -61 1 -31 7 -69 13 -83 19 -44 20 -422 2 -517 -68
-358 -212 -525 -604 -699 -40 -17 -212 -74 -244 -80 -12 -2 -41 -11 -66 -19
-65 -22 -265 -57 -490 -87 -47 -6 -92 -14 -100 -16 -31 -10 -955 -3 -1000 8
-25 6 -91 12 -146 13 -56 1 -125 8 -153 15 -29 7 -69 10 -89 7 -20 -3 -57 -1
-82 4 -25 6 -90 14 -145 19 -139 13 -254 27 -435 55 -25 4 -74 14 -110 22 -36
8 -76 17 -90 19 -43 8 -104 26 -137 40 -120 51 -112 47 -181 86 -92 51 -258
195 -313 270 -19 26 -37 48 -41 48 -5 0 -8 5 -8 11 0 6 -8 23 -18 37 -87 125
-122 239 -122 399 0 66 4 133 9 149 5 16 14 54 20 84 18 81 28 107 93 248 33
71 113 179 182 247 56 56 168 145 181 145 3 0 35 18 71 40 36 22 69 40 73 40
5 0 21 6 37 14 16 8 47 21 69 31 22 9 48 21 57 26 10 5 24 9 32 9 8 0 31 8 53
19 21 10 70 28 108 40 39 12 79 26 90 30 27 11 72 24 175 50 137 36 164 44
175 53 5 4 21 8 35 8 15 0 69 9 120 20 51 11 106 20 121 20 15 0 31 5 34 10 3
6 28 10 55 10 27 0 52 5 55 10 3 6 34 10 69 10 34 0 66 4 72 9 9 10 57 14 316
28 75 5 140 12 144 16 10 10 477 1 624 -12z"/>
</g>
</svg>
